<?xml version="1.0" standalone="no"?>
<!DOCTYPE svg PUBLIC "-//W3C//DTD SVG 20010904//EN"
 "http://www.w3.org/TR/2001/REC-SVG-20010904/DTD/svg10.dtd">
<svg version="1.0" xmlns="http://www.w3.org/2000/svg"
 width="1920.000000pt" height="1080.000000pt" viewBox="0 0 1920.000000 1080.000000"
 preserveAspectRatio="xMidYMid meet">

<g transform="translate(0.000000,1080.000000) scale(0.100000,-0.100000)"
fill="#000000" stroke="none">
<path d="M14564 10166 c-7 -7 -14 -22 -16 -32 -2 -10 -9 -18 -15 -17 -7 2 -10
-6 -8 -17 2 -11 -1 -20 -7 -20 -7 0 -8 -13 -5 -35 3 -21 2 -33 -4 -30 -5 4 -9
2 -9 -2 0 -5 23 -19 50 -30 l50 -21 0 109 c0 110 -7 129 -36 95z"/>
<path d="M14750 9690 l0 -490 -75 0 c-66 0 -75 2 -75 18 0 17 -4 17 -52 -7
-46 -23 -66 -26 -149 -26 -86 0 -101 3 -154 30 -121 62 -185 185 -185 354 0
47 4 103 9 124 8 32 7 36 -5 26 -7 -6 -13 -14 -12 -17 4 -15 -14 -52 -23 -47
-8 5 -14 -16 -10 -37 0 -5 -4 -7 -11 -5 -7 1 -13 -5 -14 -13 0 -8 -2 -18 -4
-22 -1 -5 -3 -18 -4 -30 -1 -27 -31 -36 -40 -12 -4 12 -2 15 9 11 8 -4 17 -2
20 4 4 5 3 9 -2 8 -22 -4 -25 2 -7 17 19 15 18 15 -3 9 -18 -5 -21 -2 -18 14
2 12 -1 21 -6 21 -6 0 -7 5 -4 10 3 6 1 10 -5 10 -6 0 -10 8 -8 18 2 9 -2 16
-8 15 -7 -1 -9 8 -6 24 3 14 1 23 -4 20 -5 -3 -10 6 -10 19 -2 24 -20 54 -33
54 -3 0 -5 -133 -3 -295 l3 -295 -80 0 -80 0 -3 288 c-3 268 -4 289 -24 322
-49 85 -177 86 -266 2 l-28 -26 0 -293 0 -293 -80 0 -80 0 0 336 0 336 -31
-31 c-31 -32 -40 -54 -43 -108 0 -18 -4 -33 -7 -33 -6 0 -2 -454 5 -545 2 -27
11 -66 19 -86 9 -20 13 -40 9 -44 -4 -5 -1 -5 6 -1 7 4 12 1 12 -8 0 -9 6 -15
13 -14 6 2 11 -3 9 -9 -1 -7 1 -14 5 -14 5 -1 24 -3 43 -5 19 -2 43 -5 52 -8
9 -2 18 -1 20 3 4 9 81 46 90 44 4 -2 4 5 1 14 -4 11 -3 14 5 9 8 -5 10 -2 6
8 -3 9 -3 24 1 34 7 17 9 47 20 242 10 189 12 210 24 223 6 8 8 17 4 20 -3 4
1 7 11 7 9 0 14 4 11 10 -4 6 1 7 11 3 12 -4 15 -3 10 5 -4 7 -1 12 9 12 25 0
53 -18 66 -41 9 -17 8 -20 -3 -13 -10 6 -10 4 1 -10 17 -21 21 -47 29 -244 5
-99 4 -152 -3 -152 -5 0 -4 -4 3 -9 8 -4 12 -14 11 -22 -2 -8 5 -29 14 -46 10
-18 14 -33 10 -33 -4 0 2 -7 13 -15 10 -8 15 -15 9 -15 -5 -1 10 -9 34 -19 51
-21 103 -14 157 20 28 17 50 63 45 92 0 4 4 7 10 7 5 0 8 4 5 9 -3 4 -1 22 4
40 6 20 5 31 -2 31 -6 0 -7 7 -3 18 14 34 23 82 14 76 -11 -6 -11 -5 5 76 l13
65 4 -42 c3 -24 1 -43 -3 -43 -17 0 -7 -40 13 -54 12 -8 18 -19 15 -25 -4 -6
2 -18 14 -28 11 -10 20 -23 20 -29 0 -13 27 -67 45 -91 12 -16 70 -74 87 -88
25 -19 98 -56 98 -49 0 3 7 1 15 -6 14 -11 72 -21 136 -21 14 0 61 4 105 10
43 6 105 11 137 12 40 2 62 8 70 18 7 9 18 16 25 17 6 1 16 2 20 3 13 2 53 77
45 85 -3 3 -2 6 4 6 7 0 11 88 13 253 1 138 4 338 5 442 1 105 -2 193 -7 196
-5 3 -4 17 1 32 7 18 7 36 1 52 -5 14 -6 25 -3 25 4 0 2 5 -5 12 -7 7 -12 18
-12 25 0 7 -8 22 -17 33 -43 49 -43 46 -43 -470z m-763 -402 c-3 -8 -6 -5 -6
6 -1 11 2 17 5 13 3 -3 4 -12 1 -19z"/>
<path d="M3312 10135 c-115 -36 -197 -137 -228 -284 -23 -112 -15 -235 23
-315 10 -21 13 -24 9 -8 -6 33 13 161 31 202 9 19 16 38 15 41 0 3 10 18 24
34 13 15 24 31 24 35 0 4 21 21 46 40 39 28 92 49 129 52 23 2 127 -12 137
-18 6 -4 34 -8 62 -9 46 -2 68 6 115 41 2 2 6 21 8 43 4 36 -3 58 -35 110 -1
3 -8 -4 -15 -14 -13 -17 -16 -16 -53 8 -84 56 -197 72 -292 42z"/>
<path d="M10178 10055 c-4 -4 -7 -190 -7 -414 0 -379 1 -410 20 -466 11 -33
32 -73 48 -90 31 -34 81 -65 105 -65 9 0 16 -5 16 -10 0 -7 6 -7 20 0 19 10
19 8 13 -35 -4 -34 -2 -45 8 -46 8 0 22 -2 32 -4 9 -2 17 1 17 6 0 6 5 7 10 4
6 -3 10 -1 10 6 0 8 5 7 17 -2 11 -10 14 -10 9 -1 -4 6 -3 12 3 12 6 0 18 16
27 35 9 19 20 35 24 35 4 0 6 13 4 30 -2 16 0 31 5 34 11 7 -10 86 -22 86 -5
0 -4 7 3 15 14 16 45 21 35 5 -3 -5 1 -20 10 -33 8 -13 13 -26 10 -29 -4 -3
10 -16 29 -28 20 -12 36 -28 36 -36 0 -9 4 -13 9 -9 5 3 17 -5 26 -17 8 -13
19 -23 23 -23 4 0 6 -3 5 -7 -2 -4 4 -5 12 -2 8 4 15 2 15 -4 0 -10 53 -36 66
-32 4 1 10 -3 13 -9 21 -33 227 -48 310 -22 19 6 37 8 42 6 4 -3 14 4 22 16 9
13 16 16 19 8 3 -8 9 -7 20 5 9 9 23 16 30 16 8 0 27 14 44 32 16 17 24 28 17
24 -8 -5 -8 2 2 21 10 19 11 31 3 40 -10 12 -4 17 15 14 4 -1 3 8 -3 20 -6 11
-13 30 -15 41 -3 11 -14 27 -25 35 -11 8 -18 18 -15 23 7 11 -14 7 -40 -7 -64
-34 -133 -48 -240 -47 -132 0 -177 17 -260 95 -89 84 -133 209 -122 349 3 36
3 54 0 40 -3 -14 -8 -29 -13 -35 -9 -12 -55 -163 -70 -228 -12 -53 -11 -106 2
-123 11 -14 7 -74 -4 -68 -4 3 -8 -2 -8 -11 0 -9 -5 -13 -11 -9 -8 4 -8 9 0
17 17 17 13 23 -16 22 -22 0 -29 -5 -31 -25 -3 -28 -43 -61 -50 -41 -2 6 -9
11 -16 11 -36 0 -121 35 -153 63 -67 59 -67 62 -73 460 -3 197 -8 356 -12 352z
m332 -840 c0 -8 -4 -15 -10 -15 -5 0 -7 7 -4 15 4 8 8 15 10 15 2 0 4 -7 4
-15z"/>
<path d="M10351 9735 c0 -202 3 -336 9 -345 12 -19 13 588 0 640 -5 21 -8 -99
-9 -295z"/>
<path d="M9519 9763 l-76 -218 41 -3 c30 -3 43 1 53 15 18 27 45 53 55 53 11
0 54 -42 59 -59 3 -8 19 -11 45 -9 l40 3 -71 218 -70 217 -76 -217z"/>
<path d="M11505 9865 c-19 -20 -35 -40 -35 -45 0 -6 -5 -10 -11 -10 -7 0 -9
-10 -5 -26 5 -17 3 -23 -4 -19 -7 4 -7 -2 0 -19 5 -14 6 -25 2 -25 -26 4 -31
-2 -21 -27 5 -15 8 -29 5 -31 -6 -6 -29 59 -29 80 0 10 -2 15 -5 12 -3 -3 -13
2 -22 10 -15 14 -16 9 -12 -64 2 -44 2 -91 -2 -105 l-6 -26 -280 0 -280 0 0
-31 c0 -93 76 -197 159 -219 80 -21 230 8 256 50 11 18 23 11 45 -25 20 -33
60 -49 60 -24 0 5 4 8 9 5 5 -3 27 8 49 24 42 30 66 63 55 74 -3 3 2 6 12 6
14 0 15 3 6 14 -8 9 -8 16 -2 20 6 4 8 24 6 46 -2 22 1 42 6 45 13 9 11 36 -5
66 -11 22 -11 26 3 26 21 0 42 -17 35 -28 -3 -5 6 -13 21 -19 26 -10 47 -47
37 -65 -3 -5 -2 -7 3 -3 10 9 25 -8 50 -54 11 -21 22 -38 26 -38 7 0 108 135
115 154 4 10 -191 306 -201 306 -2 0 -20 -16 -40 -35z"/>
<path d="M12018 9744 l-107 -143 66 -83 c86 -108 83 -106 81 -78 -2 26 22 90
34 90 3 0 19 20 35 45 15 25 31 45 34 45 4 0 12 14 19 30 7 17 17 30 22 30 5
0 4 9 -2 20 -8 15 -8 20 2 18 6 -2 13 2 13 7 1 6 5 17 9 26 11 25 -12 99 -30
99 -9 0 -12 -5 -8 -12 5 -9 2 -9 -9 1 -18 15 -23 26 -7 16 6 -3 10 1 10 9 0 9
-3 15 -7 15 -5 -1 -10 0 -13 1 -28 10 -45 -6 -142 -136z"/>
<path d="M10954 9866 c-22 -7 -55 -23 -72 -36 -30 -23 -82 -109 -82 -137 0
-10 44 -13 211 -13 l211 0 -7 33 c-26 119 -146 190 -261 153z"/>
<path d="M14415 9871 c-113 -29 -183 -123 -192 -261 -7 -93 15 -176 57 -223
16 -17 30 -27 30 -20 0 6 -4 14 -9 18 -6 3 -6 18 -1 37 5 17 7 35 4 40 -3 5 0
16 8 25 11 14 11 16 -1 9 -9 -6 -8 -1 3 16 20 30 62 68 77 68 5 0 8 4 5 9 -6
9 37 28 59 27 26 -2 58 -51 61 -95 7 -93 3 -165 -9 -173 -22 -14 7 -30 35 -19
57 22 58 24 58 254 0 176 -3 216 -16 235 -30 43 -110 68 -169 53z"/>
<path d="M15284 9861 c-23 -10 -54 -35 -69 -54 -48 -65 -55 -108 -55 -369 l0
-238 -75 0 -75 0 0 330 0 331 -24 -18 c-13 -10 -22 -20 -20 -22 2 -2 -2 -13
-9 -25 -16 -29 -16 -34 -17 -371 -1 -192 3 -316 10 -345 12 -45 51 -88 88 -95
9 -2 19 -4 22 -5 29 -11 130 25 130 47 0 7 3 13 8 13 22 0 34 66 38 210 8 251
14 302 34 308 5 2 10 10 10 18 0 8 6 14 14 14 8 0 16 5 18 11 2 5 10 11 18 12
8 2 21 6 28 10 6 5 17 5 22 2 6 -3 10 -1 10 5 0 6 6 10 13 9 16 -3 48 10 71
30 16 13 18 13 11 1 -5 -10 -1 -8 13 4 12 10 19 23 16 27 -3 5 -1 9 5 9 10 0
7 64 -5 103 -7 21 -40 57 -54 57 -3 0 -11 -5 -17 -11 -8 -8 -24 -6 -57 5 -57
19 -52 20 -102 -3z"/>
<path d="M15925 9871 c-43 -11 -87 -35 -111 -63 -28 -30 -54 -82 -54 -108 0
-19 5 -20 205 -20 l205 0 0 23 c-1 38 -36 103 -72 130 -18 14 -54 31 -78 36
-51 12 -53 12 -95 2z"/>
<path d="M5535 9833 c-19 -39 -25 -97 -14 -123 4 -8 15 -33 25 -55 24 -52 24
-57 29 -210 4 -115 12 -250 15 -250 1 0 3 -13 5 -30 2 -16 11 -35 20 -41 8 -6
15 -16 15 -22 0 -22 54 -73 98 -93 42 -19 61 -25 117 -32 17 -2 59 4 112 16
46 11 98 82 69 93 -8 3 -11 15 -8 29 6 35 -53 62 -143 64 -120 3 -183 34 -232
119 l-28 47 -3 263 -3 262 -28 0 c-23 0 -32 -7 -46 -37z"/>
<path d="M5772 9627 c2 -203 6 -249 18 -261 13 -14 15 -1 15 109 l0 124 34 30
c19 17 40 31 46 31 7 0 20 9 30 20 10 11 21 17 26 14 12 -7 39 50 29 65 -4 7
-6 21 -3 30 4 18 -22 47 -47 53 -8 2 -18 7 -22 12 -3 5 -34 12 -68 14 l-61 4
3 -245z"/>
<path d="M12563 9861 c-17 -4 -52 -20 -76 -35 -25 -14 -48 -26 -50 -26 -3 0
-10 13 -17 30 l-12 30 -28 -23 c-15 -12 -25 -25 -23 -29 2 -5 -2 -8 -9 -8 -9
0 -9 -3 2 -10 13 -8 12 -10 -2 -10 -10 0 -18 -5 -18 -11 0 -6 8 -8 18 -5 15 5
15 5 -1 -8 -22 -17 -21 -83 1 -78 10 2 11 -2 3 -15 -7 -13 -3 -23 17 -41 22
-21 28 -23 46 -11 12 7 41 25 66 41 61 38 176 62 259 53 l64 -6 -6 41 c-6 47
-27 83 -62 106 -28 18 -125 27 -172 15z m-163 -25 c0 -2 -8 -10 -17 -17 -16
-13 -17 -12 -4 4 13 16 21 21 21 13z"/>
<path d="M5031 9833 c-25 -31 -25 -34 -7 -78 12 -27 29 -41 86 -70 102 -51
157 -45 200 21 10 17 11 17 6 1 -4 -11 -2 -16 5 -12 5 4 8 19 7 33 -9 74 -87
123 -204 128 -68 3 -74 2 -93 -23z"/>
<path d="M6360 9844 c-19 -8 -42 -22 -51 -30 -9 -8 -25 -14 -36 -12 -12 2 -19
-4 -21 -20 -2 -12 -7 -20 -11 -18 -4 3 -7 -12 -7 -32 1 -20 7 -41 14 -45 6 -4
12 -14 12 -22 0 -23 42 -21 92 3 64 31 192 49 250 36 l45 -10 -8 43 c-19 97
-53 123 -163 123 -49 -1 -95 -7 -116 -16z"/>
<path d="M8146 9853 c-2 -2 -19 -4 -39 -5 -71 -3 -123 -88 -134 -219 -5 -64
12 -199 26 -199 3 0 7 19 9 43 3 54 44 137 80 164 27 20 65 28 124 24 41 -2
94 -62 109 -124 7 -28 12 -59 10 -69 -1 -9 2 -19 8 -22 16 -11 34 104 28 190
-5 87 -29 156 -66 189 -16 14 -43 21 -87 25 -36 3 -66 4 -68 3z"/>
<path d="M7505 9506 c-132 -308 -141 -326 -166 -326 -25 0 -33 16 -160 320
-138 328 -151 351 -179 300 -6 -11 -8 -20 -4 -20 3 0 1 -6 -5 -13 -7 -9 -8
-24 -1 -45 5 -18 7 -32 4 -32 -3 0 1 -10 8 -22 7 -13 13 -25 13 -28 1 -3 7
-18 14 -35 7 -16 14 -34 15 -40 3 -10 18 -47 54 -125 11 -25 28 -67 38 -93 9
-26 21 -50 25 -53 5 -3 9 -13 9 -23 0 -9 6 -23 13 -29 6 -7 12 -21 12 -30 1
-29 16 -62 27 -62 6 0 8 -3 5 -7 -7 -6 28 -58 67 -99 15 -16 26 -20 45 -14 32
9 102 70 95 82 -3 4 0 8 6 8 6 0 8 5 5 10 -3 6 -2 10 3 10 5 0 15 19 22 43 8
23 22 57 32 75 10 17 15 32 11 32 -4 0 -2 5 5 12 7 7 12 20 12 30 0 10 7 21
15 24 8 4 12 10 9 15 -3 5 2 21 10 36 15 26 38 85 37 90 -1 2 17 37 40 79 22
42 38 79 35 82 -3 3 -1 11 4 18 18 20 19 73 4 110 -8 19 -19 32 -23 29 -5 -3
-11 0 -13 6 -2 6 -66 -136 -143 -315z"/>
<path d="M4002 9798 c-1 -9 -7 -18 -12 -20 -6 -2 -14 -32 -18 -68 -10 -90 -8
-431 2 -455 5 -11 10 -33 12 -49 6 -44 42 -118 54 -111 6 4 10 3 9 -2 -4 -16
13 -43 27 -43 8 0 14 -4 14 -8 0 -5 26 -22 58 -37 47 -23 71 -29 135 -29 42
-1 77 2 77 6 0 12 85 21 176 19 l91 -2 31 39 c31 38 44 91 43 172 0 19 0 143
-1 275 0 215 -2 244 -19 280 l-19 40 -1 -302 -1 -303 -75 0 -75 0 0 41 0 41
-31 -27 c-113 -95 -286 -100 -387 -11 -68 60 -76 93 -83 346 -3 124 -6 218 -7
208z"/>
<path d="M4160 9643 c0 -163 10 -246 34 -278 11 -15 12 4 9 111 -7 260 -9 280
-26 304 -16 23 -17 17 -17 -137z"/>
<path d="M4488 9778 c-9 -16 -14 -82 -16 -208 l-3 -185 21 24 c19 21 20 37 20
207 0 101 -2 184 -5 184 -2 0 -10 -10 -17 -22z"/>
<path d="M2882 9740 c-47 -194 -5 -440 101 -580 22 -30 45 -57 51 -59 5 -2 24
-19 43 -37 18 -18 33 -31 33 -28 0 2 17 -4 38 -15 20 -10 42 -20 47 -21 6 -1
21 -7 35 -12 72 -28 218 -30 338 -4 13 3 49 17 80 31 92 42 139 98 147 173 4
39 8 270 5 287 -2 6 -2 13 -1 18 1 4 -7 24 -16 45 l-18 37 -3 -147 -3 -148
-60 -31 c-138 -69 -339 -90 -470 -49 -197 61 -310 231 -327 492 l-7 103 -13
-55z"/>
<path d="M11820 9770 c-4 -3 -2 -14 6 -24 9 -12 14 -15 14 -7 0 8 7 19 16 25
13 10 13 12 -6 12 -11 0 -25 -3 -30 -6z"/>
<path d="M12957 9578 c3 -238 6 -258 38 -297 17 -19 25 -41 25 -65 0 -32 -3
-36 -26 -36 -57 0 -114 23 -145 57 l-30 35 -22 -20 c-59 -55 -207 -87 -295
-63 -50 14 -123 76 -145 124 -8 18 -18 53 -22 80 -4 26 -11 47 -16 47 -8 0
-13 -22 -10 -42 0 -5 -7 -8 -16 -9 -12 0 -14 -2 -5 -6 10 -4 8 -9 -7 -19 -12
-9 -18 -22 -16 -34 2 -11 -1 -20 -6 -20 -6 0 -7 -5 -4 -10 4 -6 1 -18 -6 -26
-10 -13 -10 -17 0 -23 10 -6 7 -13 -10 -25 -19 -13 -20 -16 -6 -16 19 0 23
-15 5 -26 -7 -4 -8 -3 -4 4 4 7 3 12 -3 12 -5 0 -12 -6 -14 -12 -4 -10 -6 -10
-6 0 -1 8 -26 12 -89 12 l-88 0 -99 135 c-54 74 -101 132 -105 130 -3 -2 -44
-62 -90 -134 l-85 -131 -80 0 c-71 0 -83 -3 -100 -22 -10 -13 -20 -32 -21 -42
0 -11 -6 -22 -12 -24 -7 -2 -7 -13 -2 -33 6 -20 5 -29 -3 -29 -7 0 -4 -7 6
-14 9 -7 17 -18 17 -23 0 -17 44 -52 70 -55 14 -2 31 -7 38 -12 7 -4 19 -3 26
3 8 7 18 10 22 9 24 -8 143 66 130 80 -3 2 11 18 31 35 40 36 77 40 107 14 12
-10 15 -16 9 -12 -7 3 -13 2 -13 -3 0 -5 17 -17 38 -28 20 -11 37 -27 37 -34
0 -8 6 -16 13 -16 6 -1 17 -2 23 -3 5 0 7 -5 4 -11 -3 -5 1 -11 9 -11 29 -3
34 -4 41 -11 4 -4 13 -4 21 -1 8 3 14 0 14 -6 0 -14 37 -14 45 0 4 6 19 7 36
4 19 -4 29 -3 29 5 0 7 17 28 38 48 20 19 30 31 22 27 -12 -7 -13 -6 -4 6 6 8
10 24 9 35 -1 19 1 20 17 11 10 -7 16 -18 13 -24 -2 -7 0 -13 4 -13 5 0 11 5
13 12 3 8 14 3 32 -15 15 -15 24 -32 20 -39 -4 -7 -3 -8 4 -4 7 4 12 2 12 -4
0 -6 5 -8 10 -5 6 3 10 1 10 -5 0 -6 4 -9 9 -6 5 4 11 1 13 -5 2 -5 16 -12 32
-13 15 -2 32 -10 37 -17 5 -8 9 -10 9 -5 0 5 6 4 13 -1 16 -12 157 -8 166 4 3
6 13 10 21 11 8 0 26 3 40 6 56 14 109 14 175 2 51 -10 74 -11 87 -2 10 6 18
14 18 19 0 4 4 6 9 2 9 -5 24 22 46 80 5 11 7 29 6 40 -1 18 -1 19 9 3 6 -10
18 -18 26 -18 8 0 13 4 9 9 -3 5 -1 12 5 16 5 3 10 15 10 27 0 17 -3 18 -14 8
-8 -6 -12 -18 -9 -26 8 -20 -4 -17 -30 7 -12 12 -16 19 -10 15 9 -5 11 -2 7 8
-3 9 -9 14 -13 11 -4 -2 -5 9 -3 26 3 18 0 29 -7 29 -8 0 -9 5 -1 19 13 26 13
61 -1 61 -7 0 -10 40 -7 124 2 68 0 122 -4 120 -4 -3 -5 2 -2 10 3 9 10 16 16
16 5 0 6 5 3 10 -4 6 -11 8 -16 4 -6 -3 -8 5 -5 20 3 14 1 26 -3 26 -4 0 -8 6
-9 13 -5 48 -12 72 -21 75 -6 2 -11 10 -11 17 0 7 -7 16 -16 19 -8 3 -12 10
-9 16 3 5 3 10 -2 10 -4 0 -7 -91 -6 -202z"/>
<path d="M4838 9701 c-9 -20 -17 -45 -19 -56 -4 -30 10 -95 31 -135 25 -48 95
-114 111 -105 7 5 10 4 6 -1 -3 -6 19 -25 49 -43 30 -17 54 -35 54 -39 0 -15
61 -12 91 3 31 17 49 49 49 90 0 41 -54 89 -152 138 -111 55 -159 93 -185 146
l-19 39 -16 -37z"/>
<path d="M16325 9662 c0 -100 24 -92 -295 -92 -238 0 -280 -2 -280 -15 0 -42
25 -119 51 -154 45 -63 85 -78 205 -75 90 2 105 5 143 29 41 25 43 26 57 8 7
-10 14 -21 14 -25 0 -9 30 -6 48 5 6 5 17 5 22 2 6 -3 10 -2 10 4 0 6 8 8 18
4 9 -3 14 -3 10 1 -3 4 8 22 25 41 16 18 32 46 34 62 8 46 5 118 -4 143 -8 20
-8 21 -17 53 -5 15 -12 27 -18 27 -5 0 -7 4 -4 9 3 5 0 13 -7 19 -9 8 -12 -3
-12 -46z"/>
<path d="M15577 9693 c-9 -2 -15 -9 -12 -14 4 -5 2 -9 -4 -9 -5 0 -8 -11 -7
-25 2 -14 -3 -37 -11 -52 -8 -15 -16 -50 -18 -78 -2 -27 -4 -52 -5 -55 -6 -23
3 -155 11 -155 1 0 2 -11 3 -25 3 -48 84 -189 99 -173 4 3 7 2 7 -3 0 -5 14
-24 30 -42 17 -18 30 -36 30 -40 0 -8 62 -37 73 -34 4 1 7 -2 7 -8 0 -5 9 -10
20 -10 11 0 20 -3 20 -7 0 -22 264 -24 310 -2 3 1 10 3 15 4 58 11 131 78 141
129 7 41 -15 106 -37 106 -7 0 -17 7 -23 16 -11 14 -18 13 -76 -6 -89 -30
-219 -38 -292 -16 -119 34 -212 127 -249 248 -17 54 -20 88 -17 163 1 52 3 94
3 94 0 -1 -8 -3 -18 -6z"/>
<path d="M15527 9675 c-4 -8 -2 -17 3 -20 6 -4 10 3 10 14 0 25 -6 27 -13 6z"/>
<path d="M6800 9517 c0 -117 4 -167 15 -193 16 -38 38 -39 28 -1 -3 12 -6 67
-8 122 -5 234 -34 293 -35 72z"/>
<path d="M3525 9619 c-4 -6 -12 -8 -19 -6 -18 7 -52 -24 -63 -58 -14 -42 -1
-79 41 -116 21 -18 44 -45 52 -61 14 -27 15 -28 39 -12 24 16 25 19 25 140 l0
124 -34 0 c-19 0 -38 -5 -41 -11z"/>
<path d="M7793 9554 c-18 -73 -9 -247 16 -313 11 -29 28 -62 37 -72 9 -11 14
-19 9 -19 -6 0 49 -54 112 -109 7 -6 19 -11 28 -11 8 0 15 -4 15 -9 0 -5 15
-12 33 -16 73 -17 157 -26 157 -17 0 7 24 11 78 15 12 0 22 4 22 7 0 3 10 7
22 7 13 1 28 10 35 19 10 14 13 15 14 3 0 -8 4 -4 10 9 5 13 13 21 18 18 10
-7 67 53 98 104 20 33 44 102 49 145 10 82 10 171 0 221 l-12 59 -6 -70 c-8
-97 -40 -174 -99 -239 -72 -79 -127 -100 -259 -101 -95 0 -110 3 -162 28 -114
56 -182 167 -196 316 l-7 74 -12 -49z"/>
<path d="M6466 9575 c-77 -27 -124 -77 -133 -142 -6 -48 17 -99 52 -115 20 -9
27 -6 53 20 25 26 36 30 71 28 27 -2 38 0 34 8 -3 6 4 1 17 -12 l22 -24 34 33
c33 32 34 34 34 120 0 81 -1 87 -22 93 -39 10 -121 6 -162 -9z"/>
<path d="M12610 9574 c-93 -40 -140 -130 -110 -208 30 -81 170 -85 260 -9 l40
35 0 93 c0 75 -3 94 -16 99 -30 11 -139 5 -174 -10z"/>
<path d="M7341 9484 c0 -11 3 -14 6 -6 3 7 2 16 -1 19 -3 4 -6 -2 -5 -13z"/>
<path d="M9389 9393 c-6 -16 -24 -64 -38 -108 l-28 -80 -73 -5 c-69 -5 -75 -7
-81 -30 -17 -60 -10 -93 24 -123 42 -37 93 -33 138 12 17 17 27 31 22 31 -4 0
-1 6 7 13 9 7 26 28 38 48 30 49 81 72 167 74 140 5 189 -19 247 -118 42 -72
107 -101 156 -69 24 16 51 60 46 77 -1 6 -5 27 -9 48 l-6 37 -73 0 -73 0 -34
111 -34 110 -85 -2 c-47 -1 -90 -6 -96 -11 -7 -5 -23 -4 -38 2 -15 5 -59 10
-97 10 -67 0 -70 -1 -80 -27z"/>
<path d="M5362 9333 c-15 -44 -67 -99 -117 -123 -58 -28 -165 -36 -261 -20
-75 13 -76 13 -101 -12 -37 -37 -44 -86 -19 -121 19 -26 63 -56 91 -63 6 -2
21 -6 35 -9 48 -13 165 -11 198 2 18 8 37 11 42 8 6 -4 10 -2 10 3 0 6 19 20
41 31 51 27 67 42 61 60 -3 8 0 11 6 7 15 -9 53 93 53 144 0 25 -6 62 -14 84
l-14 38 -11 -29z"/>
<path d="M6165 9340 c-3 -5 -3 -14 0 -20 3 -5 1 -10 -4 -10 -7 0 -10 -25 -9
-65 1 -36 6 -65 10 -65 5 0 6 -5 3 -10 -10 -16 77 -139 98 -140 4 0 24 -11 45
-25 34 -22 45 -24 127 -20 126 5 125 5 125 13 0 15 70 19 172 10 39 -4 70 -3
74 3 3 5 9 7 14 4 10 -6 33 21 37 44 9 44 10 62 2 67 -4 2 -6 10 -4 17 8 21
-9 32 -70 45 -46 9 -67 19 -91 45 l-31 33 -46 -32 c-72 -50 -192 -68 -278 -42
-50 15 -114 69 -140 119 -21 42 -24 45 -34 29z"/>
<path d="M10517 9303 c-10 -9 -9 -23 1 -23 5 0 9 7 9 15 0 17 -1 18 -10 8z"/>
<path d="M10570 9121 c0 -6 9 -20 20 -31 11 -11 20 -17 20 -14 0 3 -9 17 -20
31 -11 14 -20 21 -20 14z"/>
<path d="M12326 9037 c3 -10 9 -15 12 -12 3 3 0 11 -7 18 -10 9 -11 8 -5 -6z"/>
<path d="M10410 7695 c-73 -218 -129 -399 -126 -402 3 -4 0 -13 -8 -22 -18
-21 -77 -201 -70 -213 3 -5 -1 -17 -9 -26 -8 -9 -28 -59 -45 -111 -26 -76 -29
-97 -20 -115 11 -20 10 -20 -8 -6 -10 8 -16 10 -12 6 4 -5 4 -14 -1 -20 -7
-10 -69 -188 -75 -219 -2 -7 -6 -19 -9 -27 -28 -64 -66 -195 -57 -198 5 -2 10
-11 10 -19 0 -13 -3 -13 -16 -3 -8 8 -14 9 -13 4 1 -5 -1 -16 -4 -24 -22 -52
-35 -103 -30 -117 4 -9 2 -14 -3 -10 -8 4 -28 -42 -40 -93 0 -3 -4 -12 -7 -20
-22 -51 -35 -103 -30 -117 4 -9 2 -14 -3 -10 -8 4 -28 -42 -40 -93 0 -3 -4
-12 -7 -20 -22 -51 -35 -103 -30 -117 4 -9 2 -14 -3 -10 -8 4 -28 -42 -40 -93
0 -3 -4 -12 -7 -20 -8 -19 -37 -101 -37 -106 0 -2 7 0 17 3 11 4 14 3 9 -5 -4
-7 -14 -12 -22 -12 -8 0 -14 -6 -13 -12 1 -7 -5 -30 -14 -50 -24 -53 -21 -65
16 -59 5 1 6 -9 3 -21 -3 -13 -3 -17 0 -10 3 6 10 10 15 6 5 -3 4 7 -1 21 -13
34 -13 35 5 29 11 -5 15 1 16 22 l1 29 10 -27 c5 -16 16 -28 24 -28 8 0 15
-10 15 -22 1 -17 3 -18 6 -6 2 10 -3 33 -12 52 -19 39 -14 56 16 56 18 0 19 6
12 119 l-6 119 28 -6 c26 -5 28 -3 22 24 -3 16 -4 23 -1 17 3 -7 12 -13 20
-13 8 0 11 -6 8 -15 -5 -12 2 -15 29 -15 l36 0 7 -81 c7 -80 7 -80 33 -75 14
3 47 8 74 11 46 6 47 7 47 41 0 19 5 34 10 34 6 0 10 16 10 35 0 38 1 38 93
50 46 6 47 7 48 43 1 29 3 24 10 -23 5 -33 8 -89 7 -125 l-3 -65 -77 -3 -78
-3 0 -74 0 -75 35 0 c34 0 35 -1 35 -40 0 -22 5 -40 10 -40 6 0 10 18 10 40 0
22 -4 40 -10 40 -5 0 -10 18 -10 40 l0 40 40 0 c22 0 40 -4 40 -10 0 -5 17
-10 38 -10 28 0 41 6 52 23 8 12 13 26 12 30 -1 5 1 6 6 3 11 -6 85 67 77 77
-3 4 -2 5 2 2 10 -8 83 67 76 78 -3 6 -2 7 4 4 6 -4 21 5 33 18 13 14 32 25
42 25 14 0 18 -8 18 -40 l0 -40 40 0 40 0 0 40 0 40 40 0 40 0 0 40 0 40 50 0
50 0 0 -40 c0 -34 3 -40 21 -40 16 0 19 4 14 18 -9 18 -10 37 -7 94 2 35 4 37
40 41 30 3 28 4 -15 5 -39 2 -53 6 -53 16 0 8 5 18 10 21 6 3 10 32 10 64 l0
59 47 7 c26 4 52 14 59 23 11 15 14 14 38 -8 23 -23 26 -32 26 -102 l0 -78 75
0 75 0 0 80 0 80 159 0 160 0 4 -42 4 -43 1 43 c2 40 4 42 32 42 l30 0 0 75 0
75 -35 0 c-34 0 -35 1 -34 38 2 36 2 36 8 7 5 -24 12 -30 34 -32 l27 -2 0 118
c0 65 3 120 6 124 12 12 34 -6 34 -29 0 -16 -6 -24 -16 -24 -15 0 -16 -15 -11
-147 4 -82 7 -158 7 -170 0 -19 6 -23 30 -23 l30 0 0 63 c0 57 11 87 31 87 4
0 10 -8 12 -17 3 -12 5 -8 6 9 0 14 4 34 8 43 5 14 2 16 -17 10 -15 -5 -25 -2
-31 6 -6 10 -9 6 -9 -13 0 -16 -4 -28 -10 -28 -6 0 -10 32 -10 75 l0 75 30 0
c22 0 30 5 30 18 0 14 2 15 10 2 7 -11 4 -19 -11 -30 -15 -12 -17 -18 -7 -28
6 -6 17 -12 23 -12 5 0 27 -16 47 -35 42 -40 58 -44 58 -15 0 15 7 20 25 20
14 0 25 5 25 10 0 6 -9 10 -20 10 -15 0 -20 7 -20 25 0 15 6 25 14 25 8 0 16
6 19 14 6 15 -11 36 -29 36 -21 0 -12 67 11 81 18 11 19 10 7 -4 -17 -21 -6
-40 19 -32 14 5 19 2 19 -11 0 -10 3 -14 7 -11 11 12 32 -27 22 -44 -7 -13 -3
-16 19 -16 54 0 60 -2 55 -22 -7 -26 14 -61 35 -59 37 3 51 -2 46 -16 -3 -8
-1 -17 5 -20 6 -4 7 -14 4 -24 -6 -15 -4 -15 15 2 23 20 31 9 10 -13 -8 -9 -9
-12 -1 -7 6 3 22 2 35 -3 18 -6 23 -16 23 -42 0 -31 3 -34 30 -34 42 0 55 -11
51 -45 -2 -17 1 -27 6 -24 5 3 7 13 4 21 -5 11 -2 13 11 8 12 -4 8 5 -11 24
-16 17 -33 28 -38 25 -4 -3 -8 1 -8 8 0 18 -64 80 -73 72 -4 -4 -7 -1 -7 7 0
19 -64 82 -73 73 -4 -4 -7 -1 -7 6 0 11 -3 11 -12 2 -19 -19 -33 -14 -15 6 16
17 15 20 -11 45 -16 15 -31 24 -35 20 -4 -3 -7 0 -7 8 0 19 -64 82 -73 73 -4
-4 -7 -1 -7 7 0 17 -180 199 -197 199 -7 0 -15 5 -19 12 -5 7 -2 8 7 3 8 -4
-2 8 -20 28 -32 34 -55 48 -49 30 2 -5 -1 -8 -7 -8 -5 0 -9 4 -7 9 2 5 -5 18
-15 30 l-18 21 25 -20 c15 -12 12 -5 -9 18 -19 20 -40 37 -47 37 -6 0 -17 7
-24 15 -7 8 -24 13 -41 11 -29 -3 -29 -3 -13 16 10 10 20 15 23 11 3 -5 17
-17 31 -28 14 -11 5 2 -19 27 -24 26 -49 44 -54 41 -6 -3 -7 -2 -4 4 8 13 -67
86 -78 76 -4 -5 -5 -3 -2 3 3 6 -46 62 -109 125 l-114 114 0 149 0 149 -277
278 c-152 153 -279 282 -282 286 -3 5 -13 14 -23 21 -14 12 -29 -25 -148 -383z
m750 -555 c0 -5 -5 -10 -11 -10 -5 0 -7 5 -4 10 3 6 8 10 11 10 2 0 4 -4 4
-10z m41 -17 c13 -16 12 -17 -3 -4 -10 7 -18 15 -18 17 0 8 8 3 21 -13z m80
-80 c13 -16 12 -17 -3 -4 -17 13 -22 21 -14 21 2 0 10 -8 17 -17z m57 -62 c11
-7 10 -9 -3 -14 -9 -4 -14 -3 -10 2 3 5 -1 12 -7 14 -7 3 -8 6 -3 6 6 0 16 -3
23 -8z m79 -93 c-5 -3 -16 -4 -24 -1 -10 4 -11 9 -2 19 8 10 14 11 24 1 8 -8
9 -14 2 -19z m227 -230 c-5 -8 -1 -9 12 -4 14 5 16 4 7 -5 -6 -6 -16 -8 -22
-5 -14 9 -14 26 0 26 5 0 7 -5 3 -12z m56 -62 c-14 -14 -13 -23 4 -29 10 -4
13 -1 9 9 -3 7 -1 14 4 14 5 0 10 -15 11 -32 2 -22 12 -41 30 -55 33 -27 43
-29 36 -5 -5 13 -4 14 4 3 5 -7 14 -11 20 -8 5 4 18 -3 28 -15 11 -12 14 -18
8 -15 -7 4 -15 0 -18 -9 -5 -14 -9 -13 -30 3 -17 14 -38 18 -77 17 -30 0 -46
1 -36 3 20 5 21 21 6 60 -18 44 -19 70 -3 70 10 0 11 -4 4 -11z m-1640 -32 c0
-8 -5 -12 -10 -9 -6 4 -8 11 -5 16 9 14 15 11 15 -7z m1724 -45 c-3 -5 -10 -7
-15 -3 -5 3 -7 10 -3 15 3 6 0 18 -8 28 -7 9 -3 6 10 -7 12 -13 20 -28 16 -33z
m101 -99 c-3 -5 -11 -10 -16 -10 -6 0 -7 5 -4 10 3 6 11 10 16 10 6 0 7 -4 4
-10z m-128 -72 c-2 -13 -4 -5 -4 17 -1 22 1 32 4 23 2 -10 2 -28 0 -40z m208
-7 c-3 -6 -11 -11 -17 -11 -7 0 -7 5 1 14 9 10 8 15 -4 20 -8 3 -15 10 -15 16
0 6 9 2 21 -9 12 -11 18 -24 14 -30z m-122 -6 c-3 -9 -8 -14 -10 -11 -3 3 -2
9 2 15 9 16 15 13 8 -4z m-409 -41 c11 -28 6 -39 -9 -20 -8 11 -15 23 -15 28
0 14 18 9 24 -8z m599 -5 c5 -3 2 -9 -5 -12 -9 -3 -14 3 -15 15 -1 11 1 16 5
12 4 -5 11 -12 15 -15z m-558 -50 c-4 -5 1 -9 9 -9 9 0 16 -4 16 -10 0 -12
-11 -13 -26 -2 -13 8 -15 44 -2 36 5 -3 6 -10 3 -15z m-575 -3 c0 -3 -4 -8
-10 -11 -5 -3 -10 -1 -10 4 0 6 5 11 10 11 6 0 10 -2 10 -4z m537 -58 c-2 -13
-4 -3 -4 22 0 25 2 35 4 23 2 -13 2 -33 0 -45z m678 23 c-6 -5 -25 10 -25 20
0 5 6 4 14 -3 8 -7 12 -15 11 -17z m-1238 -26 c-4 -8 -14 -15 -23 -15 -16 0
-16 2 1 20 20 22 31 20 22 -5z m533 -5 c0 -15 -7 -20 -24 -20 -21 0 -25 -5
-29 -37 l-4 -38 -1 43 c-2 36 1 42 18 42 11 0 20 7 20 15 0 8 5 15 10 15 6 0
10 -9 10 -20z m795 -60 c0 -7 -7 -16 -15 -18 -13 -4 -13 -3 -2 10 9 11 9 18 2
21 -6 3 -5 4 2 3 7 -2 13 -9 13 -16z m-2289 -33 c-2 -7 -5 -4 -5 6 -1 10 -6
15 -11 12 -7 -4 -6 -13 1 -26 6 -12 8 -23 5 -27 -3 -3 -6 1 -6 8 0 9 -5 7 -16
-6 -14 -18 -15 -18 -4 4 7 13 9 26 6 29 -3 3 0 15 6 26 9 18 11 19 20 3 5 -9
7 -22 4 -29z m564 -57 c0 -14 -7 -20 -22 -20 -20 0 -21 1 -3 20 10 11 20 20
22 20 1 0 3 -9 3 -20z m-570 0 c0 -5 -2 -10 -4 -10 -3 0 -8 5 -11 10 -3 6 -1
10 4 10 6 0 11 -4 11 -10z m860 -60 c0 -22 -4 -40 -10 -40 -5 0 -10 18 -10 40
0 22 5 40 10 40 6 0 10 -18 10 -40z m-540 -40 l0 -70 -55 0 -55 0 0 35 c0 34
1 35 40 35 39 0 40 1 40 35 0 24 5 35 15 35 12 0 15 -14 15 -70z m170 15 c0
-9 -9 -15 -21 -15 -18 0 -19 2 -9 15 7 8 16 15 21 15 5 0 9 -7 9 -15z m130
-25 c0 -5 -7 -10 -15 -10 -8 0 -15 5 -15 10 0 6 7 10 15 10 8 0 15 -4 15 -10z
m190 -30 l0 -40 -40 0 -40 0 0 40 0 40 40 0 40 0 0 -40z m-897 -22 c-3 -15 -9
-25 -14 -23 -4 3 -3 17 3 30 14 31 18 28 11 -7z m707 1 c0 -14 -7 -19 -25 -19
-29 0 -32 12 -9 34 19 19 34 12 34 -15z m-283 -11 c-3 -7 -5 -2 -5 12 0 14 2
19 5 13 2 -7 2 -19 0 -25z m573 6 c0 -8 -4 -14 -10 -14 -5 0 -10 9 -10 21 0
11 5 17 10 14 6 -3 10 -13 10 -21z m-924 -36 c-10 -34 -12 -88 -4 -88 5 0 8
15 8 33 0 22 3 28 9 18 5 -8 7 -20 4 -28 -3 -7 0 -13 6 -13 6 0 11 19 11 45 0
45 0 45 35 45 33 0 35 -2 35 -35 0 -28 4 -35 20 -35 16 0 20 7 20 35 0 24 5
35 15 35 12 0 15 -14 15 -70 l0 -70 -69 0 c-62 0 -69 2 -74 22 -5 17 -9 19
-21 9 -10 -8 -16 -9 -21 -1 -3 6 -11 8 -16 4 -6 -3 -5 4 3 16 11 18 11 23 -6
36 -20 14 -20 14 0 14 15 0 16 2 4 9 -8 6 -18 7 -22 5 -4 -3 -8 0 -8 6 0 7 7
10 15 6 9 -3 15 0 15 9 0 8 7 15 16 15 12 0 15 -6 10 -22z m-86 -8 c0 -5 -5
-10 -11 -10 -5 0 -7 5 -4 10 3 6 8 10 11 10 2 0 4 -4 4 -10z m3 -45 c-19 -14
-33 -11 -33 8 0 8 3 8 9 -2 6 -10 12 -5 22 19 12 27 14 28 17 10 2 -12 -4 -27
-15 -35z m-19 -36 c-8 -14 -21 -11 -21 5 0 8 6 12 14 9 7 -3 10 -9 7 -14z m90
-25 c23 -9 20 -19 -7 -20 -14 -1 -24 4 -24 12 0 15 7 17 31 8z m-125 -104 c0
-9 -4 -8 -9 5 -8 18 -9 18 -9 2 -1 -10 -5 -16 -11 -12 -6 3 -5 15 2 31 11 23
13 24 19 7 4 -10 8 -25 8 -33z m-29 -30 c0 -5 -4 -10 -10 -10 -5 0 -10 5 -10
10 0 6 5 10 10 10 6 0 10 -4 10 -10z m29 -31 c1 -4 -8 -9 -18 -12 -17 -4 -18
-2 -8 26 9 28 11 29 18 11 4 -10 8 -22 8 -25z m-57 -21 c-8 -8 -9 -4 -5 13 4
13 8 18 11 10 2 -7 -1 -18 -6 -23z m58 -18 c0 -13 -5 -18 -15 -14 -8 4 -15 10
-15 16 0 5 5 6 10 3 6 -3 10 -1 10 4 0 6 2 11 5 11 3 0 5 -9 5 -20z m-10 -41
c0 -6 -4 -7 -10 -4 -5 3 -10 11 -10 16 0 6 5 7 10 4 6 -3 10 -11 10 -16z m-77
-66 c-22 -48 -22 -48 -29 -40 -6 6 33 77 42 77 2 0 -4 -17 -13 -37z"/>
<path d="M11735 6490 c3 -5 13 -10 21 -10 8 0 12 5 9 10 -3 6 -13 10 -21 10
-8 0 -12 -4 -9 -10z"/>
<path d="M11810 6480 c-12 -7 -10 -9 7 -7 12 0 19 5 17 9 -6 10 -6 10 -24 -2z"/>
<path d="M8060 7493 l0 -300 -900 -896 -899 -897 591 -587 c325 -324 595 -587
600 -585 5 1 7 -1 4 -6 -7 -12 128 -144 138 -135 4 4 6 1 4 -7 -2 -8 3 -14 10
-12 8 1 11 -1 8 -6 -7 -12 48 -64 58 -55 4 5 6 1 4 -7 -2 -8 3 -14 10 -12 8 1
11 -1 8 -6 -7 -12 48 -64 59 -55 4 5 5 3 2 -3 -8 -14 66 -87 78 -77 4 5 5 3 2
-3 -3 -6 46 -62 109 -125 l114 -114 0 -242 c0 -134 4 -243 8 -243 4 0 8 -9 8
-19 0 -11 -4 -17 -8 -14 -5 2 -7 -23 -6 -57 2 -48 7 -65 22 -76 10 -7 23 -11
27 -9 9 6 0 45 -14 63 -6 8 -5 17 4 28 11 14 13 14 21 0 5 -9 7 -20 4 -25 -3
-5 1 -14 9 -21 9 -8 15 -8 15 -2 0 6 -6 13 -12 15 -8 3 -5 6 6 6 14 1 16 4 7
14 -6 8 -10 31 -9 52 1 28 6 39 20 43 17 4 19 14 18 86 -1 44 -1 86 1 91 1 6
1 13 0 17 0 5 3 7 7 5 4 -1 22 10 40 25 25 21 32 35 32 62 0 33 -2 36 -30 36
-28 0 -30 2 -30 40 l0 40 60 0 60 0 0 40 c0 22 5 40 11 40 6 0 10 18 9 43 -1
23 -1 47 0 52 1 6 2 14 1 18 -1 5 3 6 7 3 5 -3 17 3 26 13 17 18 16 19 -16 27
-18 4 -45 6 -60 5 -26 -2 -28 0 -28 38 0 34 3 41 20 41 16 0 20 7 20 35 l0 34
-57 4 -58 3 63 2 62 2 1 -42 2 -43 7 50 c5 28 9 101 9 163 1 105 2 112 21 112
14 0 20 7 20 23 0 32 18 199 22 202 2 1 12 5 23 9 19 6 20 2 17 -74 -3 -75 -2
-80 17 -80 18 0 21 -6 21 -40 0 -22 5 -40 10 -40 6 0 10 18 10 40 0 22 -4 40
-9 40 -5 0 -11 36 -13 80 -2 44 0 80 5 80 4 0 7 18 7 40 0 39 1 40 35 40 33 0
35 2 35 34 0 34 1 35 43 38 42 3 42 3 45 46 l3 42 45 0 c43 0 44 0 44 34 0 30
4 34 31 40 43 8 49 8 49 -5 0 -5 -5 -7 -11 -3 -8 5 -10 -2 -6 -21 2 -16 0 -36
-5 -45 -7 -10 -7 -31 0 -60 7 -36 11 -41 16 -25 4 11 12 29 16 40 8 16 9 15 5
-8 -2 -16 0 -25 6 -22 5 4 7 11 4 16 -4 5 -2 9 4 9 5 0 8 9 6 20 -2 12 2 23
11 27 11 4 12 8 3 20 -10 11 -10 13 0 11 18 -4 41 74 29 96 -6 10 -5 16 2 16
5 0 10 -7 10 -15 0 -19 16 -20 23 -1 3 8 0 17 -8 20 -8 3 -13 14 -12 25 0 11
5 17 10 14 4 -3 6 -8 2 -11 -3 -3 4 -11 17 -18 19 -10 24 -9 34 12 7 13 10 33
7 45 -4 13 -2 20 3 16 9 -5 37 68 39 98 0 6 5 19 11 30 7 11 11 46 9 77 -2 39
1 56 8 51 7 -4 8 0 3 13 -15 36 -17 59 -3 29 l14 -30 12 35 c9 29 10 30 5 5
-14 -75 -17 -86 -23 -76 -4 6 -7 -5 -7 -24 0 -19 1 -35 3 -35 4 0 46 144 46
160 0 8 6 22 14 31 8 9 11 24 7 34 -5 11 -4 16 3 12 5 -3 10 -1 10 6 0 7 4 21
9 32 7 18 6 18 -9 6 -16 -13 -16 -11 -2 22 17 42 19 61 5 52 -6 -3 -7 1 -3 10
5 13 7 14 14 3 7 -10 9 -8 9 6 0 11 3 17 6 13 3 -3 1 -22 -6 -42 -7 -20 -10
-38 -7 -41 2 -3 11 15 19 40 10 29 11 49 5 55 -11 11 0 34 12 26 8 -4 48 92
56 135 2 10 9 29 15 41 10 17 9 23 -1 30 -11 7 -11 9 1 9 11 0 43 84 115 298
55 163 99 303 99 310 -1 6 2 12 6 12 4 0 10 12 13 26 4 22 -10 40 -91 122
-210 214 -1300 1308 -1320 1326 l-22 19 0 -300z m1363 -1348 c-3 -9 -8 -14
-10 -11 -3 3 -2 9 2 15 9 16 15 13 8 -4z m-29 -63 c3 -5 -1 -9 -9 -9 -8 0 -12
4 -9 9 3 4 7 8 9 8 2 0 6 -4 9 -8z m-84 -173 c3 7 7 -2 7 -20 0 -31 0 -31 -13
-7 -7 12 -13 28 -13 33 0 6 3 4 6 -4 4 -9 7 -10 13 -2z m33 -4 c-3 -9 -8 -14
-10 -11 -3 3 -2 9 2 15 9 16 15 13 8 -4z m-28 -64 c3 -5 1 -12 -5 -16 -5 -3
-10 1 -10 9 0 18 6 21 15 7z m-15 -41 c0 -5 -5 -10 -11 -10 -5 0 -7 5 -4 10 3
6 8 10 11 10 2 0 4 -4 4 -10z m-60 -170 c-6 -11 -8 -26 -5 -33 4 -6 0 -3 -9 7
-14 17 -14 20 2 32 23 18 24 17 12 -6z m-27 -75 c-3 -9 -8 -14 -10 -11 -3 3
-2 9 2 15 9 16 15 13 8 -4z m-108 -305 c-3 -5 -10 -10 -16 -10 -5 0 -9 5 -9
10 0 6 7 10 16 10 8 0 12 -4 9 -10z m-35 -40 c0 -5 -5 -10 -11 -10 -5 0 -7 5
-4 10 3 6 8 10 11 10 2 0 4 -4 4 -10z m-90 -115 c0 -19 -4 -35 -10 -35 -11 0
-14 53 -3 63 11 12 13 8 13 -28z m10 -65 c0 -5 -5 -10 -11 -10 -5 0 -7 5 -4
10 3 6 8 10 11 10 2 0 4 -4 4 -10z m24 -50 c-1 -23 -12 -61 -24 -85 -12 -24
-19 -48 -16 -53 3 -5 -1 -18 -9 -28 -13 -17 -13 -16 -9 13 4 25 1 34 -15 43
-22 11 -29 42 -9 38 6 -2 14 6 16 17 8 41 19 34 17 -11 -2 -42 -1 -46 11 -29
8 10 14 28 13 39 0 21 -1 21 -9 1 -13 -30 -12 -7 1 34 7 20 13 42 15 49 8 29
21 9 18 -28z m-47 -2 c-3 -8 -6 -5 -6 6 -1 11 2 17 5 13 3 -3 4 -12 1 -19z
m-32 -118 c3 -5 -1 -10 -9 -10 -9 0 -16 5 -16 10 0 6 4 10 9 10 6 0 13 -4 16
-10z m-50 -79 c4 -39 1 -57 -10 -68 -8 -8 -12 -20 -8 -26 4 -7 -2 -5 -12 3
-17 14 -18 13 -11 -5 6 -16 5 -18 -5 -7 -10 9 -10 15 -1 24 9 9 9 15 -1 27
-10 14 -10 14 5 3 18 -14 43 -7 32 9 -3 5 -9 7 -14 4 -15 -9 -17 64 -1 80 19
19 20 18 26 -44z m-172 35 c4 -10 1 -13 -8 -9 -8 3 -12 9 -9 14 7 12 11 11 17
-5z m94 -28 c-3 -8 -6 -5 -6 6 -1 11 2 17 5 13 3 -3 4 -12 1 -19z m-254 -132
c4 -10 1 -13 -8 -9 -8 3 -12 9 -9 14 7 12 11 11 17 -5z m-1058 -434 c-3 -3
-11 0 -18 7 -9 10 -8 11 6 5 10 -3 15 -9 12 -12z m745 -187 c0 -28 4 -35 20
-35 16 0 20 7 20 35 0 28 4 35 20 35 18 0 20 -7 20 -70 l0 -70 -60 0 -60 0 0
35 c0 19 5 35 10 35 6 0 10 16 10 35 0 19 5 35 10 35 6 0 10 -16 10 -35z
m-500 -50 c0 -12 -19 -12 -23 0 -4 9 -1 12 9 8 7 -3 14 -7 14 -8z m69 -88 c0
-9 -2 -9 -5 0 -3 7 -13 9 -22 6 -14 -4 -14 -3 -2 5 16 12 30 7 29 -11z m88
-75 c-7 -9 -13 -10 -15 -4 -2 6 -11 8 -20 5 -12 -3 -13 -2 -5 4 7 5 21 9 32 9
16 0 18 -3 8 -14z m345 -29 c2 -10 1 -34 -3 -53 -6 -31 -7 -32 -8 -7 -1 22 -6
27 -28 27 l-26 0 23 25 c28 30 36 31 42 8z m-279 -39 c23 3 25 1 15 -11 -9
-11 -9 -16 2 -23 8 -5 12 -11 9 -14 -3 -3 -23 11 -44 31 -22 20 -33 31 -25 25
9 -6 28 -9 43 -8z m187 -41 c0 5 5 5 11 1 13 -7 -3 -27 -24 -30 -12 -1 -14 14
-8 46 1 3 6 -2 11 -10 5 -8 10 -11 10 -7z m-140 -33 c0 -6 19 -7 47 -4 27 3
45 3 41 -1 -3 -4 -13 -7 -21 -9 -8 -1 -21 -7 -28 -13 -11 -8 -20 -5 -39 13
-13 13 -19 24 -12 24 6 0 12 -4 12 -10z m85 -40 c3 -5 1 -10 -4 -10 -6 0 -11
5 -11 10 0 6 2 10 4 10 3 0 8 -4 11 -10z m65 -21 c0 -6 -7 -8 -16 -5 -8 3 -12
2 -9 -3 3 -5 1 -12 -5 -16 -6 -4 -9 -52 -8 -123 l2 -117 6 119 c3 79 9 121 17
123 9 3 12 -54 12 -227 1 -196 -2 -234 -15 -247 -8 -9 -13 -21 -11 -27 3 -7
-3 -12 -12 -13 -14 -1 -16 22 -13 245 1 136 6 254 9 262 6 14 8 22 12 35 2 10
31 5 31 -6z m-63 -306 c-3 -10 -5 -2 -5 17 0 19 2 27 5 18 2 -10 2 -26 0 -35z
m3 -148 c0 -19 -4 -35 -8 -35 -4 0 -6 16 -4 35 2 19 6 35 8 35 2 0 4 -16 4
-35z"/>
<path d="M8990 4949 c0 -5 5 -7 10 -4 6 3 10 8 10 11 0 2 -4 4 -10 4 -5 0 -10
-5 -10 -11z"/>
<path d="M11420 7541 c0 -6 4 -13 10 -16 6 -3 7 1 4 9 -7 18 -14 21 -14 7z"/>
<path d="M11500 7461 c0 -6 4 -13 10 -16 6 -3 7 1 4 9 -7 18 -14 21 -14 7z"/>
<path d="M11580 7381 c0 -6 4 -13 10 -16 6 -3 7 1 4 9 -7 18 -14 21 -14 7z"/>
<path d="M11601 6374 c0 -11 3 -14 6 -6 3 7 2 16 -1 19 -3 4 -6 -2 -5 -13z"/>
<path d="M11880 6370 c0 -5 5 -10 11 -10 5 0 7 5 4 10 -3 6 -8 10 -11 10 -2 0
-4 -4 -4 -10z"/>
<path d="M11740 6230 c0 -5 5 -10 10 -10 6 0 10 5 10 10 0 6 -4 10 -10 10 -5
0 -10 -4 -10 -10z"/>
<path d="M12849 6133 c-13 -16 -12 -17 4 -4 9 7 17 15 17 17 0 8 -8 3 -21 -13z"/>
<path d="M11680 6111 c0 -25 6 -27 13 -6 4 8 2 17 -3 20 -6 4 -10 -3 -10 -14z"/>
<path d="M12282 6017 c-10 -12 -8 -14 12 -12 27 3 48 -15 44 -36 -2 -8 5 -13
15 -13 10 1 16 -3 14 -10 -2 -6 -11 -11 -20 -11 -23 0 -29 -11 -7 -12 10 -1
24 5 31 13 10 12 6 21 -21 49 -18 19 -37 32 -41 30 -4 -3 -9 0 -11 6 -2 7 -8
6 -16 -4z"/>
<path d="M13006 5972 c-3 -5 1 -9 9 -9 8 0 12 4 9 9 -3 4 -7 8 -9 8 -2 0 -6
-4 -9 -8z"/>
<path d="M12385 5929 c-5 -7 -4 -10 3 -5 15 9 27 -13 27 -49 0 -25 4 -30 26
-30 34 -1 28 22 -16 65 -24 23 -35 28 -40 19z m60 -59 c0 -7 -7 -16 -15 -18
-13 -4 -13 -3 -2 10 9 11 9 18 2 21 -6 3 -5 4 2 3 7 -2 13 -9 13 -16z"/>
<path d="M11760 5886 c0 -19 5 -38 10 -41 6 -4 10 10 10 34 0 23 -4 41 -10 41
-5 0 -10 -15 -10 -34z"/>
<path d="M13086 5892 c-3 -5 1 -9 9 -9 8 0 12 4 9 9 -3 4 -7 8 -9 8 -2 0 -6
-4 -9 -8z"/>
<path d="M12488 5839 c7 -9 11 -23 10 -30 -2 -8 5 -13 15 -13 19 2 22 -6 7
-24 -5 -7 -2 -5 7 3 16 14 15 17 -17 48 -18 17 -28 25 -22 16z"/>
<path d="M11010 5830 c19 -13 30 -13 30 0 0 6 -10 10 -22 10 -19 0 -20 -2 -8
-10z"/>
<path d="M13169 5813 c-13 -16 -12 -17 4 -4 9 7 17 15 17 17 0 8 -8 3 -21 -13z"/>
<path d="M6016 5812 c-3 -5 1 -9 9 -9 8 0 12 4 9 9 -3 4 -7 8 -9 8 -2 0 -6 -4
-9 -8z"/>
<path d="M10951 5764 c-18 -21 -6 -30 14 -11 8 9 15 18 15 21 0 11 -15 5 -29
-10z"/>
<path d="M12571 5755 c8 -11 21 -25 29 -31 12 -10 12 -14 0 -30 -13 -18 -13
-18 5 -1 19 17 19 18 -15 50 -18 17 -27 23 -19 12z"/>
<path d="M13246 5732 c-3 -5 1 -9 9 -9 8 0 12 4 9 9 -3 4 -7 8 -9 8 -2 0 -6
-4 -9 -8z"/>
<path d="M12576 5703 c-6 -14 -5 -15 5 -6 7 7 10 15 7 18 -3 3 -9 -2 -12 -12z"/>
<path d="M12649 5678 c7 -9 10 -22 7 -27 -4 -5 -1 -13 5 -17 8 -5 9 -3 4 6 -5
8 -3 11 6 8 21 -7 17 -33 -5 -31 -13 1 -15 -2 -7 -10 8 -8 16 -7 28 6 17 16
16 19 -17 50 -18 17 -28 24 -21 15z"/>
<path d="M13333 5673 c4 -3 1 -13 -6 -22 -11 -14 -10 -14 5 -2 16 12 16 31 1
31 -4 0 -3 -3 0 -7z"/>
<path d="M12728 5599 c7 -9 11 -23 10 -30 -2 -8 5 -13 15 -13 19 2 22 -6 7
-24 -5 -7 -2 -5 7 3 16 14 15 17 -17 48 -18 17 -28 25 -22 16z"/>
<path d="M9840 5560 c0 -22 5 -40 10 -40 6 0 10 18 10 40 0 22 -4 40 -10 40
-5 0 -10 -18 -10 -40z"/>
<path d="M12810 5515 c6 -8 9 -18 7 -22 -3 -5 3 -9 13 -9 18 0 18 2 -2 23 -24
25 -38 32 -18 8z"/>
<path d="M5696 5511 c-3 -5 2 -15 12 -22 15 -12 16 -12 5 2 -7 9 -10 19 -6 22
3 4 4 7 0 7 -3 0 -8 -4 -11 -9z"/>
<path d="M12883 5385 c0 -8 4 -12 9 -9 5 3 6 10 3 15 -9 13 -12 11 -12 -6z"/>
<path d="M13573 5375 c0 -8 4 -12 9 -9 5 3 6 10 3 15 -9 13 -12 11 -12 -6z"/>
<path d="M9930 5275 l0 -75 35 0 c34 0 35 -1 35 -40 0 -22 5 -40 10 -40 6 0
10 18 10 40 0 22 -4 40 -10 40 -5 0 -10 18 -10 40 l0 40 40 0 40 0 0 -40 c0
-22 5 -40 10 -40 6 0 10 18 10 40 0 22 -4 40 -10 40 -5 0 -10 16 -10 35 l0 35
-75 0 -75 0 0 -75z"/>
<path d="M9627 5313 c3 -7 9 -13 14 -13 5 0 9 6 9 13 0 8 -6 14 -14 14 -8 0
-12 -6 -9 -14z"/>
<path d="M5699 5303 c-13 -16 -12 -17 4 -4 9 7 17 15 17 17 0 8 -8 3 -21 -13z"/>
<path d="M12830 5310 c-9 -6 -10 -10 -3 -10 6 0 15 5 18 10 8 12 4 12 -15 0z"/>
<path d="M13490 5305 c5 -7 6 -16 2 -21 -4 -5 -3 -5 2 -1 15 12 15 34 0 34 -9
0 -11 -4 -4 -12z"/>
<path d="M5730 5307 c0 -2 15 -16 33 -33 l32 -29 -29 33 c-28 30 -36 37 -36
29z"/>
<path d="M9610 5303 c0 -15 18 -35 23 -27 3 5 -1 15 -9 22 -8 7 -14 9 -14 5z"/>
<path d="M9675 5290 c-3 -5 0 -10 7 -10 10 0 9 -3 -2 -11 -13 -9 -13 -10 0 -6
17 4 27 37 11 37 -5 0 -13 -4 -16 -10z"/>
<path d="M12799 5273 c-13 -16 -12 -17 4 -4 9 7 17 15 17 17 0 8 -8 3 -21 -13z"/>
<path d="M9597 5261 c-3 -12 -1 -21 3 -21 14 0 19 15 11 29 -6 9 -10 7 -14 -8z"/>
<path d="M9740 5241 c0 -11 5 -23 10 -26 6 -4 7 -11 4 -17 -4 -7 -2 -8 5 -4 6
4 8 13 4 19 -4 7 -6 20 -5 30 2 9 -2 17 -7 17 -6 0 -11 -9 -11 -19z"/>
<path d="M12766 5243 c-6 -14 -5 -15 5 -6 7 7 10 15 7 18 -3 3 -9 -2 -12 -12z"/>
<path d="M5784 5228 c-5 -7 -3 -8 5 -3 8 4 27 -6 49 -26 l37 -34 -34 38 c-37
40 -46 44 -57 25z"/>
<path d="M13419 5238 c-5 -18 -6 -38 -1 -34 7 8 12 36 6 36 -2 0 -4 -1 -5 -2z"/>
<path d="M9581 5210 c1 -8 -6 -32 -15 -54 -9 -21 -15 -40 -12 -43 3 -3 8 6 12
21 3 14 10 26 14 26 14 0 20 31 10 48 -8 14 -10 14 -9 2z"/>
<path d="M12654 5188 c-4 -7 -3 -8 5 -4 6 4 20 2 29 -6 15 -12 16 -11 3 5 -16
20 -27 22 -37 5z"/>
<path d="M9770 5155 c0 -24 5 -35 15 -35 10 0 15 11 15 35 0 24 -5 35 -15 35
-10 0 -15 -11 -15 -35z"/>
<path d="M9880 5155 c0 -19 5 -35 10 -35 6 0 10 -18 10 -40 0 -33 3 -40 20
-40 17 0 20 7 20 40 0 22 -4 40 -10 40 -5 0 -10 16 -10 35 0 28 -4 35 -20 35
-16 0 -20 -7 -20 -35z"/>
<path d="M5864 5148 c-5 -7 -3 -8 5 -3 8 4 26 -5 47 -26 33 -32 46 -58 22 -43
-7 4 -8 3 -4 -5 4 -6 12 -8 18 -5 5 3 25 -9 44 -27 33 -32 46 -57 22 -43 -9 5
-9 3 1 -9 7 -9 18 -14 23 -11 10 6 148 -124 148 -139 0 -5 -4 -6 -9 -2 -5 3
-12 1 -16 -4 -3 -6 4 -8 16 -6 25 5 105 -67 94 -85 -3 -5 0 -8 7 -5 19 7 72
-50 63 -66 -6 -8 -4 -10 4 -4 9 5 38 -18 87 -66 68 -67 93 -102 62 -83 -9 5
-9 2 1 -9 15 -18 26 -23 16 -7 -14 22 13 8 43 -23 32 -33 42 -54 20 -41 -9 5
-9 2 1 -9 15 -18 26 -23 16 -7 -21 34 25 -5 124 -104 105 -105 113 -116 100
-133 -13 -17 -13 -17 4 -4 16 13 22 11 54 -22 33 -32 35 -38 22 -54 -13 -17
-13 -17 4 -4 16 13 22 11 54 -22 33 -32 35 -38 22 -54 -13 -17 -13 -17 4 -4
16 13 22 11 54 -22 33 -32 35 -38 22 -54 -13 -17 -13 -17 4 -4 16 13 22 11 54
-22 33 -32 35 -38 22 -54 -13 -17 -13 -17 4 -4 16 13 22 11 54 -22 33 -32 35
-38 22 -54 -13 -17 -13 -17 4 -4 16 13 22 11 54 -22 33 -32 35 -38 22 -54 -13
-17 -13 -17 4 -4 16 13 22 11 54 -22 33 -32 35 -38 22 -54 -13 -17 -13 -17 4
-4 16 13 22 10 53 -20 19 -18 32 -39 30 -46 -3 -7 1 -10 8 -7 7 3 25 -9 40
-26 14 -17 26 -28 26 -23 0 10 -1652 1663 -1662 1663 -4 0 -10 -5 -14 -12z"/>
<path d="M13330 5145 c5 -7 6 -16 2 -21 -4 -5 -3 -5 2 -1 15 12 15 34 0 34 -9
0 -11 -4 -4 -12z"/>
<path d="M9585 5140 c-3 -6 -4 -19 0 -30 3 -10 -1 -33 -10 -50 -18 -34 -12
-42 7 -7 6 12 12 39 13 60 1 40 0 43 -10 27z"/>
<path d="M12651 5127 c-13 -21 -12 -21 5 -5 10 10 16 20 13 22 -3 3 -11 -5
-18 -17z"/>
<path d="M12590 5116 c0 -2 8 -10 18 -17 15 -13 16 -12 3 4 -13 16 -21 21 -21
13z"/>
<path d="M9565 5090 c-4 -6 -9 -8 -13 -6 -4 2 -8 -27 -10 -65 -3 -60 -1 -68
13 -63 10 4 14 13 10 23 -13 31 -16 63 -7 75 11 14 23 46 17 46 -2 0 -7 -5
-10 -10z"/>
<path d="M13246 5068 c3 -5 10 -6 15 -3 13 9 11 12 -6 12 -8 0 -12 -4 -9 -9z"/>
<path d="M12571 5047 c-13 -21 -12 -21 5 -5 10 10 16 20 13 22 -3 3 -11 -5
-18 -17z"/>
<path d="M9517 5020 c-3 -11 -1 -20 4 -20 5 0 9 9 9 20 0 11 -2 20 -4 20 -2 0
-6 -9 -9 -20z"/>
<path d="M13179 4998 c-5 -18 -6 -38 -1 -34 7 8 12 36 6 36 -2 0 -4 -1 -5 -2z"/>
<path d="M9505 4963 c4 -13 2 -23 -4 -23 -11 0 -36 -68 -28 -76 3 -3 8 8 12
25 4 17 10 31 15 31 14 0 20 31 10 48 -9 14 -10 13 -5 -5z"/>
<path d="M13090 4905 c5 -7 6 -16 2 -21 -4 -5 -3 -5 2 -1 15 12 15 34 0 34 -9
0 -11 -4 -4 -12z"/>
<path d="M9494 4867 c-5 -12 -14 -21 -19 -20 -6 1 -10 -9 -10 -22 0 -28 13
-22 26 12 5 13 13 21 19 18 12 -7 13 5 2 22 -5 8 -11 5 -18 -10z"/>
<path d="M13009 4826 c6 -7 7 -17 3 -22 -4 -4 1 -2 11 5 19 15 16 24 -9 27
-11 2 -12 -1 -5 -10z"/>
<path d="M8938 4753 c-37 -42 -57 -125 -37 -153 8 -11 9 -9 4 9 -6 18 -4 22 6
16 8 -5 11 -5 7 -1 -3 4 2 27 12 51 10 24 16 46 13 49 -3 3 0 12 7 21 18 22 7
29 -12 8z m-17 -64 c-5 -13 -10 -19 -10 -12 -1 15 10 45 15 40 3 -2 0 -15 -5
-28z"/>
<path d="M12926 4748 c3 -5 10 -6 15 -3 13 9 11 12 -6 12 -8 0 -12 -4 -9 -9z"/>
<path d="M9429 4740 c-3 -19 -5 -25 -18 -48 -7 -13 -10 -26 -7 -30 3 -3 6 0 6
6 0 7 4 12 9 12 12 0 8 -86 -4 -97 -4 -5 -5 3 -2 17 6 24 5 24 -8 6 -17 -23
-20 -40 -5 -31 6 3 10 0 10 -7 0 -7 6 -4 12 7 11 17 20 175 11 175 -2 0 -4 -4
-4 -10z"/>
<path d="M12851 4664 c6 -7 16 -11 21 -8 11 7 3 17 -18 20 -12 2 -13 -1 -3
-12z"/>
<path d="M12169 4643 c-13 -16 -12 -17 4 -4 16 13 21 21 13 21 -2 0 -10 -8
-17 -17z"/>
<path d="M9390 4634 c0 -8 5 -12 10 -9 6 4 8 11 5 16 -9 14 -15 11 -15 -7z"/>
<path d="M12095 4630 c-3 -6 1 -7 9 -4 18 7 21 14 7 14 -6 0 -13 -4 -16 -10z"/>
<path d="M12764 4592 c4 -3 14 -7 22 -8 9 -1 13 0 10 4 -4 3 -14 7 -22 8 -9 1
-13 0 -10 -4z"/>
<path d="M8883 4578 c5 -15 -4 -24 -17 -15 -11 6 -46 -39 -46 -60 0 -14 -4
-21 -10 -18 -5 3 -10 1 -10 -5 0 -7 7 -10 15 -6 12 4 14 0 8 -22 -4 -15 -7
-42 -6 -60 1 -18 -2 -30 -7 -27 -4 3 -6 -5 -2 -17 l5 -22 9 23 c4 12 6 35 3
49 -3 15 -2 21 1 13 5 -9 11 -3 21 20 20 46 25 79 13 79 -5 0 -10 -12 -10 -27
-1 -22 -3 -25 -10 -12 -13 22 -1 59 19 59 24 0 46 39 30 54 -9 8 -11 7 -6 -6z"/>
<path d="M12091 4568 c-14 -23 -14 -23 8 -4 22 20 25 26 13 26 -4 0 -13 -10
-21 -22z"/>
<path d="M8720 4520 c0 -22 5 -40 10 -40 6 0 10 18 10 40 0 22 -4 40 -10 40
-5 0 -10 -18 -10 -40z"/>
<path d="M12000 4526 c0 -2 8 -10 18 -17 15 -13 16 -12 3 4 -13 16 -21 21 -21
13z"/>
<path d="M12684 4512 c4 -3 14 -7 22 -8 9 -1 13 0 10 4 -4 3 -14 7 -22 8 -9 1
-13 0 -10 -4z"/>
<path d="M8640 4410 c0 -58 3 -70 16 -70 14 0 16 8 10 46 -3 26 -6 57 -6 70 0
13 -4 24 -10 24 -6 0 -10 -30 -10 -70z"/>
<path d="M9321 4429 c-6 -18 -11 -37 -10 -43 0 -6 7 7 15 28 8 22 12 41 10 43
-2 2 -9 -10 -15 -28z"/>
<path d="M12600 4436 c0 -2 8 -10 18 -17 15 -13 16 -12 3 4 -13 16 -21 21 -21
13z"/>
<path d="M9286 4323 c-6 -14 -5 -15 5 -6 7 7 10 15 7 18 -3 3 -9 -2 -12 -12z"/>
<path d="M11839 4313 c-13 -16 -12 -17 4 -4 9 7 17 15 17 17 0 8 -8 3 -21 -13z"/>
<path d="M8560 4275 c0 -25 5 -45 10 -45 6 0 10 20 10 45 0 25 -4 45 -10 45
-5 0 -10 -20 -10 -45z"/>
<path d="M8748 4313 c6 -2 12 -12 12 -20 0 -12 3 -13 13 -4 8 6 17 7 22 3 4
-4 6 -1 3 7 -2 8 -17 15 -33 16 -17 2 -24 1 -17 -2z"/>
<path d="M8729 4270 c-2 -14 1 -41 9 -60 11 -31 11 -33 -2 -17 -13 17 -14 16
-12 -7 0 -13 3 -22 5 -20 2 2 10 -1 17 -7 10 -8 12 -2 9 28 -2 21 -1 32 1 25
6 -13 24 -7 24 9 0 6 -4 8 -9 4 -5 -3 -12 7 -14 22 l-4 28 -3 -30 c-3 -28 -3
-27 -9 10 -6 34 -8 36 -12 15z"/>
<path d="M6730 4276 c0 -2 8 -10 18 -17 15 -13 16 -12 3 4 -13 16 -21 21 -21
13z"/>
<path d="M8776 4264 c-4 -9 -4 -19 -1 -22 2 -3 7 3 11 12 4 9 4 19 1 22 -2 3
-7 -3 -11 -12z"/>
<path d="M11759 4233 c-13 -16 -12 -17 4 -4 16 13 21 21 13 21 -2 0 -10 -8
-17 -17z"/>
<path d="M9246 4204 c-9 -24 -2 -26 12 -4 7 11 8 20 3 20 -5 0 -12 -7 -15 -16z"/>
<path d="M11679 4153 c-13 -16 -12 -17 4 -4 16 13 21 21 13 21 -2 0 -10 -8
-17 -17z"/>
<path d="M8400 4120 c0 -22 5 -40 10 -40 6 0 10 18 10 40 0 22 -4 40 -10 40
-5 0 -10 -18 -10 -40z"/>
<path d="M8721 4114 c0 -11 3 -14 6 -6 3 7 2 16 -1 19 -3 4 -6 -2 -5 -13z"/>
<path d="M9240 4115 c0 -5 5 -17 10 -25 5 -8 10 -10 10 -5 0 6 -5 17 -10 25
-5 8 -10 11 -10 5z"/>
<path d="M11599 4073 c-13 -16 -12 -17 4 -4 16 13 21 21 13 21 -2 0 -10 -8
-17 -17z"/>
<path d="M8686 4064 c-3 -9 -6 -17 -6 -18 0 -1 9 -2 20 -2 11 0 20 1 20 2 0
11 -14 34 -20 34 -4 0 -11 -7 -14 -16z"/>
<path d="M8652 4030 c0 -14 2 -19 5 -12 2 6 2 18 0 25 -3 6 -5 1 -5 -13z"/>
<path d="M8695 4020 c-3 -5 -1 -10 4 -10 6 0 11 5 11 10 0 6 -2 10 -4 10 -3 0
-8 -4 -11 -10z"/>
<path d="M11519 3993 c-13 -16 -12 -17 4 -4 16 13 21 21 13 21 -2 0 -10 -8
-17 -17z"/>
<path d="M8659 3979 c-14 -14 -14 -20 -3 -40 l13 -24 16 39 c9 21 14 41 11 44
-3 3 -6 -1 -6 -9 0 -9 -3 -10 -8 -3 -4 7 -12 4 -23 -7z m17 -25 c-4 -9 -9 -15
-11 -12 -3 3 -3 13 1 22 4 9 9 15 11 12 3 -3 3 -13 -1 -22z"/>
<path d="M8641 3914 c0 -11 3 -14 6 -6 3 7 2 16 -1 19 -3 4 -6 -2 -5 -13z"/>
<path d="M8470 3913 c0 -5 4 -15 10 -23 8 -12 11 -12 28 3 10 9 22 15 25 12 4
-3 5 -2 2 2 -7 9 -35 13 -32 5 1 -4 -2 -7 -8 -7 -5 0 -9 3 -7 8 1 4 -2 7 -8 7
-5 0 -10 -3 -10 -7z"/>
<path d="M11426 3908 c3 -5 10 -6 15 -3 13 9 11 12 -6 12 -8 0 -12 -4 -9 -9z"/>
<path d="M8650 3880 c-6 -11 -8 -20 -6 -20 3 0 10 9 16 20 6 11 8 20 6 20 -3
0 -10 -9 -16 -20z"/>
<path d="M9161 3884 c0 -11 3 -14 6 -6 3 7 2 16 -1 19 -3 4 -6 -2 -5 -13z"/>
<path d="M8592 3820 c7 -10 14 -18 15 -16 6 6 -9 36 -18 36 -5 0 -4 -9 3 -20z"/>
<path d="M8620 3809 c0 -7 -6 -17 -14 -23 -20 -16 -30 -67 -12 -60 8 3 12 14
9 27 -3 16 -2 18 5 9 7 -11 10 -10 14 5 3 10 9 26 13 36 4 10 3 17 -4 17 -6 0
-11 -5 -11 -11z"/>
<path d="M8572 3790 c0 -14 2 -19 5 -12 2 6 2 18 0 25 -3 6 -5 1 -5 -13z"/>
<path d="M11266 3748 c3 -5 10 -6 15 -3 13 9 11 12 -6 12 -8 0 -12 -4 -9 -9z"/>
<path d="M8578 3692 c4 -11 1 -13 -8 -7 -9 5 -11 4 -6 -3 10 -16 14 -15 25 6
7 14 6 19 -4 19 -7 0 -11 -7 -7 -15z"/>
<path d="M8500 3669 c0 -5 5 -7 10 -4 6 3 10 8 10 11 0 2 -4 4 -10 4 -5 0 -10
-5 -10 -11z"/>
<path d="M11186 3668 c3 -5 10 -6 15 -3 13 9 11 12 -6 12 -8 0 -12 -4 -9 -9z"/>
<path d="M9081 3644 c0 -11 3 -14 6 -6 3 7 2 16 -1 19 -3 4 -6 -2 -5 -13z"/>
<path d="M8511 3584 c0 -11 3 -14 6 -6 3 7 2 16 -1 19 -3 4 -6 -2 -5 -13z"/>
<path d="M8491 3554 c0 -11 3 -14 6 -6 3 7 2 16 -1 19 -3 4 -6 -2 -5 -13z"/>
<path d="M7550 3480 c0 -5 5 -10 11 -10 5 0 7 5 4 10 -3 6 -8 10 -11 10 -2 0
-4 -4 -4 -10z"/>
<path d="M7593 3437 c12 -13 24 -22 26 -20 6 4 -30 43 -40 43 -5 0 2 -10 14
-23z"/>
<path d="M8501 3434 c0 -11 3 -14 6 -6 3 7 2 16 -1 19 -3 4 -6 -2 -5 -13z"/>
<path d="M8990 3436 c0 -8 4 -17 9 -20 5 -4 7 3 4 14 -6 23 -13 26 -13 6z"/>
<path d="M7689 3348 c21 -24 22 -30 10 -45 -13 -17 -13 -17 5 -3 17 13 21 11
47 -18 16 -18 29 -29 29 -24 0 4 -26 32 -57 62 -32 30 -47 43 -34 28z"/>
<path d="M8416 3255 c-3 -9 -6 -22 -5 -28 0 -7 5 -1 10 12 5 13 8 26 5 28 -2
2 -6 -3 -10 -12z"/>
<path d="M7841 3193 c7 -12 15 -20 18 -17 3 2 -3 12 -13 22 -17 16 -18 16 -5
-5z"/>
<path d="M8421 3194 c0 -11 3 -14 6 -6 3 7 2 16 -1 19 -3 4 -6 -2 -5 -13z"/>
<path d="M7870 3160 c0 -5 5 -10 11 -10 5 0 7 5 4 10 -3 6 -8 10 -11 10 -2 0
-4 -4 -4 -10z"/>
<path d="M8405 3149 c-4 -6 -5 -12 -2 -15 2 -3 7 2 10 11 7 17 1 20 -8 4z"/>
<path d="M7913 3117 c12 -13 24 -22 26 -20 6 4 -30 43 -40 43 -5 0 2 -10 14
-23z"/>
<path d="M8001 3033 c7 -12 15 -20 18 -17 3 2 -3 12 -13 22 -17 16 -18 16 -5
-5z"/>
<path d="M8172 3000 c0 -19 2 -27 5 -17 2 9 2 25 0 35 -3 9 -5 1 -5 -18z"/>
<path d="M8141 2954 c6 -7 17 -10 25 -7 20 7 18 10 -11 15 -20 4 -23 2 -14 -8z"/>
<path d="M8120 2934 c0 -9 32 -33 44 -34 5 0 1 9 -9 20 -18 20 -35 26 -35 14z"/>
<path d="M8202 2851 c4 -13 18 -16 19 -4 0 4 -5 9 -11 12 -7 2 -11 -2 -8 -8z"/>
<path d="M8281 2784 c0 -11 3 -14 6 -6 3 7 2 16 -1 19 -3 4 -6 -2 -5 -13z"/>
</g>
</svg>
